HIERARCHY
ROOT Hips
{
  OFFSET 1.44925e-005 102.336 -0.101585
  CHANNELS 6 Xposition Yposition Zposition Zrotation Xrotation Yrotation
  JOINT LeftUpLeg
  {
    OFFSET 8.9458 -8.66707 0.101652
    CHANNELS 3 Zrotation Xrotation Yrotation
    JOINT LeftLeg
    {
      OFFSET 0 -44.4227 1.3727
      CHANNELS 3 Zrotation Xrotation Yrotation
      JOINT LeftFoot
      {
        OFFSET -0.253549 -42.0924 -1.46059
        CHANNELS 3 Zrotation Xrotation Yrotation
        JOINT LeftToes
        {
          OFFSET -0.04 -4.41509 8.4991
          CHANNELS 3 Zrotation Xrotation Yrotation
          End Site
          {
            OFFSET 0.08 -0.047448 9.77979
          }
        }
      }
    }
  }
  JOINT Spine
  {
    OFFSET 0 11.8905 0
    CHANNELS 3 Zrotation Xrotation Yrotation
    JOINT Spine1
    {
      OFFSET 0 25.6574 0.127663
      CHANNELS 3 Zrotation Xrotation Yrotation
      JOINT RightShoulder
      {
        OFFSET -8.99 -0.362252 -0.22
        CHANNELS 3 Zrotation Xrotation Yrotation
        JOINT RightArm
        {
          OFFSET -10.2827 -0.00338 0.322123
          CHANNELS 3 Zrotation Xrotation Yrotation
          JOINT RightForeArm
          {
            OFFSET -26.364 0.099144 -1.42434
            CHANNELS 3 Zrotation Xrotation Yrotation
            JOINT RightHand
            {
              OFFSET -22.0324 0.085362 1.02216
              CHANNELS 3 Zrotation Xrotation Yrotation
              End Site
              {
                OFFSET -13.3284 -0.6 1.50291
              }
            }
          }
        }
      }
      JOINT LeftShoulder1
      {
        OFFSET 8.99 -0.362252 -0.22
        CHANNELS 3 Zrotation Xrotation Yrotation
        JOINT LeftArm
        {
          OFFSET 10.2827 -0.00337999 0.322123
          CHANNELS 3 Zrotation Xrotation Yrotation
          JOINT LeftForeArm
          {
            OFFSET 26.2597 0.099144 -1.42434
            CHANNELS 3 Zrotation Xrotation Yrotation
            JOINT LeftHand
            {
              OFFSET 22.0902 0.085362 1.02216
              CHANNELS 3 Zrotation Xrotation Yrotation
              End Site
              {
                OFFSET 13.419 -0.6 1.50291
              }
            }
          }
        }
      }
      JOINT Head
      {
        OFFSET 0 8.73416 0.011341
        CHANNELS 3 Zrotation Xrotation Yrotation
        End Site
        {
          OFFSET -0.29 12.7742 2.51395
        }
      }
    }
  }
  JOINT RightUpLeg
  {
    OFFSET -8.9458 -8.66707 0.101652
    CHANNELS 3 Zrotation Xrotation Yrotation
    JOINT RightLeg
    {
      OFFSET 0 -44.4227 1.3727
      CHANNELS 3 Zrotation Xrotation Yrotation
      JOINT RightFoot
      {
        OFFSET 0.253549 -42.0924 -1.46059
        CHANNELS 3 Zrotation Xrotation Yrotation
        JOINT RightToes
        {
          OFFSET 0.04 -4.41509 8.4991
          CHANNELS 3 Zrotation Xrotation Yrotation
          End Site
          {
            OFFSET -0.08 -0.137448 9.77979
          }
        }
      }
    }
  }
}
MOTION
Frames:	21
Frame Time:	0.0333333
29.577 101.385 4.41623 -4.48755 -3.31839 -85.2829 -3.94641 -5.36619 -6.90798 1.32387 30.3577 25.8062 -5.64852 -18.5085 -0.449963 -1.34668e-009 8.75229e-006 -1.47044e-008 5.13708 15.6424 -1.85161 -3.02376 -1.30949 -0.58144 33.9436 1.73772 0.303706 39.4113 -2.20021 21.8239 5.10326 21.39 18.0114 -8.84727 9.52858 -0.128232 -45.179 3.6485 -3.52279 -22.0845 -21.4005 9.60612 -0.501605 30.0836 -20.0041 5.82328 9.61819 -0.917488 -0.952497 -16.0244 -7.16175 -3.25884 -9.59552 -7.57648 3.94729 16.7468 -17.3207 -4.52819 -6.14894 -0.10167 0.0462048 0.000530889 0.662642 
31.4219 101.074 4.78634 -3.94663 -3.12932 -85.1486 -3.72951 -4.15696 -7.50499 1.4276 34.6266 26.7751 -5.65708 -19.8015 -0.509611 -1.34668e-009 8.75229e-006 -1.47044e-008 5.38882 15.3316 -2.0405 -2.60639 -1.67767 -0.778862 34.1478 1.73662 0.272523 39.7191 -4.24651 20.9175 5.68153 21.1786 17.2338 -9.32481 9.51292 -0.215452 -44.9093 3.61907 -3.50646 -22.3538 -21.3457 9.74885 -0.209737 29.8728 -20.4876 5.82328 9.61819 -0.917488 -0.96057 -15.563 -6.94113 -3.6493 -11.5912 -7.76497 4.16667 17.1737 -17.3139 -4.49614 -5.08272 -0.0530126 0.0462048 0.000530889 0.662642 
33.4468 100.656 5.24404 -3.44168 -2.87854 -84.9806 -3.42012 -2.36052 -8.01474 1.51768 38.0973 27.3735 -5.51927 -20.7218 -0.536356 -1.34668e-009 8.75229e-006 -1.47044e-008 5.63701 15.0367 -2.28427 -2.07008 -1.9198 -1.03877 34.4317 1.73624 0.243215 39.767 -6.23023 19.7062 6.21406 20.9865 16.499 -9.93001 9.47761 -0.108274 -44.7978 3.60697 -3.49973 -22.5769 -21.0055 9.54711 0.0269491 29.7518 -20.8888 5.82328 9.61819 -0.917488 -1.04061 -15.542 -6.75234 -3.98761 -13.7094 -7.87508 4.29333 17.6913 -17.4265 -4.39106 -4.12481 -0.0121794 0.0462048 0.000530889 0.662642 
35.6715 100.149 5.7647 -3.05546 -2.5521 -84.7772 -2.90115 -0.0544487 -8.2343 1.58935 40.4255 27.9073 -6.05997 -21.521 -0.639458 -1.34668e-009 8.75229e-006 -1.47044e-008 5.8644 14.8163 -2.54375 -1.47477 -2.06209 -1.32755 34.6032 1.73807 0.234938 39.749 -8.31572 18.2826 6.6227 21.5781 15.6135 -10.376 9.45089 -0.0301392 -44.6728 3.59216 -3.4897 -22.9543 -20.6491 9.00666 0.388262 29.8396 -21.3801 5.82328 9.61819 -0.917488 -1.05826 -15.7574 -6.62822 -4.21135 -15.7995 -7.83599 4.30034 18.0955 -17.7777 -4.20974 -3.24082 0.0203793 0.0462048 0.000530889 0.662642 
38.099 99.5143 6.347 -2.75965 -2.08422 -84.5619 -2.21288 2.41927 -8.32694 1.62472 41.9003 27.9534 -6.38982 -22.3125 -0.721738 -1.34668e-009 8.75229e-006 -1.47044e-008 6.11391 14.6112 -2.79364 -0.829211 -2.15184 -1.62669 34.6609 1.74228 0.240275 39.6398 -10.5612 16.7909 7.0158 23.2495 14.3664 -10.7565 9.42595 0.0545344 -44.4877 3.5734 -3.48063 -23.4618 -20.0536 8.34167 0.985798 29.7421 -22.3495 5.82328 9.61819 -0.917488 -0.96378 -15.9293 -6.47046 -4.32729 -17.9883 -7.77987 4.26916 18.5287 -18.3539 -3.86972 -2.07868 0.0538842 0.0462048 0.000530889 0.662642 
40.7394 98.6765 7.00229 -2.52822 -1.34648 -84.3757 -1.31433 4.93037 -8.41755 1.58893 42.5875 26.571 -6.02365 -22.0747 -0.662643 -1.34668e-009 8.75229e-006 -1.47044e-008 6.6376 14.3209 -3.03928 -0.196246 -2.08826 -1.8961 34.6738 1.74394 0.245607 39.3415 -12.7273 15.2389 7.40611 25.6305 12.9456 -11.0927 9.38993 0.286142 -44.3904 3.56715 -3.48679 -23.7438 -19.3932 7.72621 1.79499 29.5501 -23.9896 5.82328 9.61819 -0.917488 -0.873166 -15.9814 -6.23932 -4.28165 -20.3799 -7.82629 4.301 19.1674 -18.885 -3.49883 -0.704078 0.087134 0.0462048 0.000530889 0.662642 
43.5473 97.7292 7.70178 -2.42135 -0.406572 -84.2486 -0.111836 7.77462 -8.31786 1.45683 41.3842 23.2937 -6.92716 -20.4789 -0.681044 -1.34668e-009 8.75229e-006 -1.47044e-008 7.30959 13.9495 -3.23679 0.382756 -1.89694 -2.12341 34.6662 1.74477 0.247547 38.7669 -14.1675 13.3475 7.67045 27.5069 11.9375 -11.0992 9.37752 0.424176 -44.3897 3.5645 -3.4981 -23.622 -19.713 7.29819 2.88749 30.2443 -26.3636 5.82328 9.61819 -0.917488 -0.871446 -15.8529 -6.00724 -4.06733 -22.5528 -7.72501 4.42377 19.3969 -19.3266 -3.21888 0.585157 0.114921 0.0462048 0.000530889 0.662642 
46.4435 96.8879 8.39943 -2.49041 0.337399 -84.1007 1.07593 11.103 -7.83972 1.22602 37.1286 19.5843 -10.4163 -19.9121 -1.0509 -1.34668e-009 8.75229e-006 -1.47044e-008 7.34065 13.6385 -3.33265 1.08589 -1.86349 -2.42448 34.7487 1.7458 0.240514 37.8319 -14.3974 10.9854 7.73101 28.011 11.7013 -10.629 9.42027 0.193609 -44.3332 3.56401 -3.49982 -23.3762 -21.0882 7.12468 4.36995 31.7186 -29.4834 5.82328 9.61819 -0.917488 -0.851017 -15.4086 -5.77811 -4.05289 -24.0277 -7.34508 4.61173 18.524 -20.1449 -2.4398 2.14048 0.0993333 0.0462048 0.000530889 0.662642 
49.5344 96.1651 9.09769 -2.72017 0.439559 -83.7167 1.50563 14.2333 -7.11035 1.02045 30.7761 17.3231 -14.1148 -23.1257 -1.85423 -1.34668e-009 8.75229e-006 -1.47044e-008 6.07701 13.6423 -3.40865 2.18367 -2.04933 -2.95763 35.0825 1.74808 0.214685 36.7758 -13.9653 8.57584 7.63263 27.6477 11.9817 -10.0797 9.47787 -0.197877 -44.2045 3.56477 -3.5057 -23.2354 -22.4997 6.87077 5.93149 32.8292 -32.8474 5.82328 9.61819 -0.917488 -0.619428 -14.8122 -5.49378 -4.88916 -25.0072 -7.30498 4.73474 17.0636 -21.5825 -0.115757 4.10233 -0.088025 0.0462048 0.000530889 0.662642 
53.0429 95.5149 9.80466 -3.14221 -0.380726 -83.0285 0.527622 15.9512 -6.29651 1.02532 25.2342 16.7725 -14.4244 -28.9008 -2.62886 -1.34668e-009 8.75229e-006 -1.47044e-008 3.52388 14.1939 -3.51739 3.58284 -2.04935 -3.65023 35.6359 1.75257 0.17502 36.17 -14.0778 6.61058 7.45062 27.0237 12.3858 -9.9344 9.50474 -0.461362 -44.1374 3.57016 -3.52745 -23.1974 -23.3602 5.69009 6.91458 33.258 -35.2884 5.82328 9.61819 -0.917488 -0.105713 -14.6383 -5.28018 -6.85604 -25.5838 -8.00226 4.57289 15.4965 -23.0652 3.79792 4.76072 -0.494822 0.0462048 0.000530889 0.662642 
56.853 95.1142 10.4727 -3.8252 -2.14526 -82.5 -1.94335 15.8259 -5.17325 1.31348 22.8065 16.9765 -11.3144 -33.115 -2.47767 -1.34668e-009 8.75229e-006 -1.47044e-008 0.158612 15.2368 -3.381 4.65296 -1.59192 -4.1073 36.2157 1.75888 0.138186 36.3548 -15.2296 5.066 7.39911 25.8015 12.687 -10.0549 9.5245 -0.779583 -44.1916 3.58173 -3.54196 -23.3321 -23.1743 3.02213 6.90836 33.1027 -35.7114 5.82328 9.61819 -0.917488 0.549177 -15.1968 -5.41244 -9.42235 -25.1173 -9.02147 3.92045 12.9588 -23.5082 7.85557 1.90035 -0.756049 0.0462048 0.000530889 0.662642 
60.5777 95.0872 11.0762 -4.66828 -4.22013 -82.8085 -4.98221 14.5341 -4.27631 1.35205 23.1466 17.4698 -8.68451 -34.1839 -1.93886 -1.34668e-009 8.75229e-006 -1.47044e-008 -2.84498 16.3075 -2.80121 4.6178 -0.989228 -3.9213 36.7358 1.76691 0.111366 37.0306 -17.192 3.72947 7.69852 24.7886 12.3702 -9.86415 9.57436 -1.33756 -44.3481 3.58961 -3.53366 -23.4661 -21.7577 -0.402336 5.99292 32.504 -34.0435 5.82328 9.61819 -0.917488 1.03429 -15.9725 -5.92441 -11.5548 -23.626 -9.86892 3.09919 9.069 -23.1583 10.8195 -3.34289 -0.556223 0.0462048 0.000530889 0.662642 
63.8681 95.4511 11.6556 -5.40815 -5.51292 -84.1877 -7.31956 12.9082 -3.35317 1.19144 24.0616 17.9299 -8.21687 -33.38 -1.75907 -1.34668e-009 8.75229e-006 -1.47044e-008 -4.01179 16.8357 -2.05341 3.18708 -0.697267 -3.09901 37.1927 1.77725 0.0958044 37.6681 -20.0734 2.77067 8.15187 27.0839 10.6521 -9.04963 9.62865 -1.69803 -44.6201 3.61075 -3.53374 -23.2673 -19.5019 -3.0357 4.58561 31.4812 -31.2339 5.82328 9.61819 -0.917488 1.08611 -16.1615 -6.44558 -12.5082 -22.5003 -10.2493 2.89259 6.49708 -23.6662 12.5005 -7.18867 -0.225791 0.0462048 0.000530889 0.662642 
66.6794 96.2052 12.2368 -5.87188 -5.38178 -86.1119 -8.24249 11.4792 -2.27231 1.20319 23.8751 18.7308 -7.89016 -31.8918 -1.57805 -1.34668e-009 8.75229e-006 -1.47044e-008 -2.90208 16.6737 -1.58729 1.06279 -0.708221 -2.10108 37.4159 1.78839 0.102258 38.2137 -23.4607 2.50969 8.6353 33.6225 7.62918 -8.0986 9.63941 -1.37831 -44.9403 3.65174 -3.56492 -22.9838 -17.3533 -3.98908 3.24927 30.2999 -28.4357 5.82328 9.61819 -0.917488 0.717074 -15.6017 -6.53701 -12.0656 -22.8045 -10.3352 3.37633 8.7187 -25.2263 12.7077 -8.4106 -0.0926688 0.0462048 0.000530889 0.662642 
69.0832 97.1635 12.7395 -6.12179 -4.23511 -87.7478 -7.94732 10.5101 -1.50143 1.33891 22.6319 19.8571 -6.52738 -29.9825 -1.16483 -1.34668e-009 8.75229e-006 -1.47044e-008 -0.963909 16.1706 -1.43643 -0.37422 -0.751688 -1.45474 37.2341 1.79707 0.137946 38.8353 -25.5687 2.79318 9.19205 39.8604 4.8256 -7.85368 9.61333 -0.803835 -45.0901 3.6758 -3.5887 -23.3502 -16.0888 -3.4959 2.3597 29.4121 -26.2968 5.82328 9.61819 -0.917488 0.202397 -14.7845 -6.0856 -10.4964 -23.8206 -12.1402 3.04003 15.3196 -24.3542 11.7419 -8.76243 -0.0651262 0.0462048 0.000530889 0.662642 
71.1575 98.0495 13.0366 -6.30777 -3.09004 -88.5734 -7.12713 9.85985 -0.613949 1.47791 21.2687 19.8482 -5.25938 -27.9653 -0.814187 -1.34668e-009 8.75229e-006 -1.47044e-008 -0.220164 15.6947 -1.41372 -0.350212 -0.904051 -1.37216 36.8623 1.80055 0.178574 39.1929 -25.8525 3.02585 9.42254 41.5159 3.91469 -8.39805 9.58323 -0.661895 -44.9736 3.65645 -3.56896 -24.4924 -15.6624 -2.15335 1.86274 28.9315 -24.9331 5.82328 9.61819 -0.917488 -0.12009 -14.1371 -5.30399 -8.71431 -24.3671 -16.4893 -0.328903 23.8022 -18.2193 10.3871 -10.1236 0.0366744 0.0462048 0.000530889 0.662642 
73.0418 98.7564 13.1268 -6.39227 -2.35255 -88.7691 -6.19428 9.14946 0.604787 1.44115 20.2057 18.5549 -4.82896 -26.3939 -0.673192 -1.34668e-009 8.75229e-006 -1.47044e-008 -0.753769 15.4017 -1.41762 0.574789 -1.30474 -1.64502 36.6916 1.79748 0.186586 39.021 -25.0291 2.92654 9.25888 38.8735 4.99562 -9.37614 9.55852 -0.875067 -44.7392 3.6225 -3.53866 -25.694 -15.4544 -0.419368 1.44018 28.635 -24.1015 5.82328 9.61819 -0.917488 -0.064485 -13.7208 -4.49455 -7.49987 -24.3525 -12.7404 -1.23635 32.1092 -18.6341 9.3872 -12.2357 0.180235 0.0462048 0.000530889 0.662642 
74.7794 99.2221 13.0885 -6.30433 -1.96956 -88.8396 -5.44006 8.20298 1.63903 1.18478 19.5168 17.2906 -4.60617 -25.5055 -0.602903 -1.34668e-009 8.75229e-006 -1.47044e-008 -1.5487 15.1176 -1.39908 1.20751 -1.7922 -1.8855 36.7502 1.78972 0.163299 38.7928 -23.3814 2.78067 8.88267 34.619 6.99879 -10.3402 9.53525 -1.0565 -44.5955 3.6104 -3.53683 -26.3199 -14.8347 1.25117 0.885847 28.2349 -23.3173 5.82328 9.61819 -0.917488 0.316601 -13.4674 -3.91883 -6.65392 -23.994 -8.58361 -1.24818 40.1635 -18.9544 9.53984 -14.0789 0.332035 0.0462048 0.000530889 0.662642 
76.3753 99.4413 12.9948 -6.09187 -1.93375 -89.0679 -5.16161 7.02108 2.07082 0.901128 19.3406 16.7996 -4.26064 -24.9926 -0.529712 -1.34668e-009 8.75229e-006 -1.47044e-008 -2.19171 14.6619 -1.28462 1.1535 -2.10132 -1.90123 36.7626 1.78042 0.140513 39.0202 -21.6567 2.89299 8.33479 31.4609 8.92436 -10.8155 9.52265 -1.11794 -44.6562 3.62288 -3.55191 -26.3624 -14.2438 2.53187 0.195716 28.2263 -22.1773 5.82328 9.61819 -0.917488 0.771097 -13.2666 -3.7239 -6.02517 -23.0404 -5.55389 -1.38306 46.8833 -18.2299 10.0873 -15.9768 0.520257 0.0462048 0.000530889 0.662642 
77.849 99.587 12.8893 -5.73536 -2.16358 -89.3927 -5.30327 5.71247 1.99703 0.701017 19.3228 16.8459 -4.11696 -24.3799 -0.487385 -1.34668e-009 8.75229e-006 -1.47044e-008 -2.72731 14.0092 -1.08596 0.835488 -2.30292 -1.76018 36.6474 1.77215 0.131318 39.5147 -20.1568 3.23227 7.79212 30.0016 10.3019 -10.8879 9.51137 -1.01679 -44.8828 3.64771 -3.56581 -26.1076 -14.6243 3.51047 -0.644519 29.2387 -20.5374 5.82328 9.61819 -0.917488 0.990863 -12.9158 -3.86567 -5.54611 -21.2078 -3.07876 -1.46428 51.0094 -17.3465 9.52008 -17.9328 0.633892 0.0462048 0.000530889 0.662642 
79.1685 99.7583 12.7751 -5.13966 -2.43161 -89.6872 -5.49535 4.26004 1.77391 0.528224 19.2419 17.0709 -4.24791 -23.7351 -0.484958 -1.34668e-009 8.75229e-006 -1.47044e-008 -2.96972 13.1207 -0.913223 0.371347 -2.60755 -1.56065 36.5561 1.7675 0.12873 39.8634 -18.5752 3.63165 7.43673 29.5398 11.1273 -10.9615 9.47323 -0.606889 -45.041 3.67133 -3.58753 -25.8137 -16.4858 4.44722 -1.70037 31.2743 -18.4664 5.82328 9.61819 -0.917488 0.848457 -12.3387 -4.16121 -5.14365 -18.5349 -1.06325 -1.44176 51.7425 -16.2167 8.65261 -18.6246 0.605299 0.0462048 0.000530889 0.662642 
